# xmcd
#
# Track frame offsets: 
#        150
#        26401
#        45901
#        65881
#        83435
#        102901
#        119144
#        140314
#        171443
#        183959
#        202008
#        215835
#        231451
#        250030
#
# Disc length: 3614 seconds
#
# Revision: 0
# Processed by: cddbd v1.5.2PL0 Copyright (c) Steve Scherf et al.
# Submitted via: ExactAudioCopy v1.3
#
DISCID=cb0e1c0e
DTITLE=Various Artist - Soulbag Sampler, Dec 2008
DYEAR=2008
DGENRE=Blues
TTITLE0=Marvin Sease - Track01 
TTITLE1=Cedric Burnside and Lightnin' Malcolm - Track02 
TTITLE2=Freddie Hughes - Track03 
TTITLE3=Alice Russell - Track04 
TTITLE4=Sandra Nkaké - Track05 
TTITLE5=Brother Tyrone - Track06 
TTITLE6=John Lee Hooker, Jr. - Track07 
TTITLE7=Earl Gaines - Track08 
TTITLE8=The Bruce Katz Band - Track09 
TTITLE9=Brother and Sister Walker - Track10 
TTITLE10=Doris Allen - Track11 
TTITLE11=Joe Louis Walker - Track12 
TTITLE12=Drew Davies Rhythm Combo - Track13 
TTITLE13=Chris James and Patrick Rynn - Track14 
EXTD=
EXTT0=
EXTT1=
EXTT2=
EXTT3=
EXTT4=
EXTT5=
EXTT6=
EXTT7=
EXTT8=
EXTT9=
EXTT10=
EXTT11=
EXTT12=
EXTT13=
PLAYORDER=
